PathFileType	4	(X/Y/Z)	./resultDataOpenSim/trcMotMarkerGrf/sub09/qtm-03-03.trc
DataRate	CameraRate	NumFrames	NumMarkers	Units	OrigDataRate	OrigDataStartFrame	OrigNumFrames
250.000000	250.000000	11	24	m	250.000000	1	478
Frame#	Time	L.Toe.Tip			R.Toe.Tip			L.Ankle.Lat			R.Ankle.Lat			L.Ankle.Med			R.Ankle.Med			L.Heel			R.Heel			L.Knee.Lat			R.Knee.Lat			L.Knee.Med			R.Knee.Med			L.Thigh.Upper			R.Thigh.Upper			L.ASIS			R.ASIS			V.Sacral			L.Acromium			R.Acromium			C7			L.Elbow			R.Elbow			L.Wrist.Lat			R.Wrist.Lat
		X1	Y1	Z1	X2	Y2	Z2	X3	Y3	Z3	X4	Y4	Z4	X5	Y5	Z5	X6	Y6	Z6	X7	Y7	Z7	X8	Y8	Z8	X9	Y9	Z9	X10	Y10	Z10	X11	Y11	Z11	X12	Y12	Z12	X13	Y13	Z13	X14	Y14	Z14	X15	Y15	Z15	X16	Y16	Z16	X17	Y17	Z17	X18	Y18	Z18	X19	Y19	Z19	X20	Y20	Z20	X21	Y21	Z21	X22	Y22	Z22	X23	Y23	Z23	X24	Y24	Z24

1	0	-1.5428774	0.036325564	-0.015249138	-0.95000287	0.087745264	0.11069558	-1.6865936	0.083079337	-0.048983923	-1.1017877	0.067866455	0.12871802	-1.6626342	0.099767226	0.044714882	-1.0904694	0.10982111	0.039990817	NaN	NaN	NaN	-1.1506335	0.030967144	0.068042826	-1.5376323	0.47174089	-0.11071324	-1.1948209	0.51689438	0.17932945	-1.538994	0.47358333	0.015108239	-1.1822783	0.50150784	0.053601637	-1.4154012	0.87528633	-0.1545165	-1.3938056	0.86915875	0.21529465	-1.3100288	0.94533327	-0.100205	-1.3082071	0.95038422	0.14162763	-1.4659513	1.0136244	0.029430637	-1.2674436	1.4033863	-0.13189045	-1.3148235	1.4076643	0.19303411	-1.3511077	1.4613713	0.027511808	-1.3612382	1.0410605	-0.22200178	NaN	NaN	NaN	-1.1150036	0.92744161	-0.18169236	-1.3975203	0.83368736	0.2902717
2	0.004	-1.54284	0.036300933	-0.01534361	-0.93454029	0.091846812	0.11118256	-1.6861879	0.083968553	-0.049106368	-1.0859697	0.068298558	0.12894967	-1.6619068	0.10057104	0.044465648	-1.0750423	0.11073145	0.040384891	NaN	NaN	NaN	-1.1333969	0.030258159	0.068431775	-1.5346819	0.47176806	-0.11088087	-1.1891826	0.51534018	0.17928885	-1.5356259	0.47360809	0.014974733	-1.1757025	0.50020757	0.053571806	-1.4098077	0.87421674	-0.1540943	-1.3880047	0.86757125	0.21539468	-1.3040783	0.94405942	-0.1001465	-1.302043	0.94901946	0.14170055	-1.4613834	1.0120473	0.026587288	-1.2616591	1.4021831	-0.13153098	-1.3092658	1.4063326	0.19324721	-1.3455948	1.4600832	0.02741587	-1.3540994	1.0394122	-0.2219225	NaN	NaN	NaN	-1.1071678	0.92776548	-0.18101378	-1.3922282	0.83225713	0.29073585
3	0.008	-1.5427848	0.036282416	-0.015437325	-0.91924918	0.095997681	0.11169049	-1.6858049	0.084870619	-0.049243744	-1.070222	0.068881612	0.12930335	-1.6612442	0.10136519	0.044241672	-1.0598918	0.11166277	0.040785147	NaN	NaN	NaN	-1.1164337	0.029656587	0.068894683	-1.531555	0.47175144	-0.11103973	-1.1834299	0.51378562	0.17926466	-1.5322522	0.47358845	0.014874802	-1.1691441	0.49890381	0.053513201	-1.404167	0.8731447	-0.15376766	-1.3820415	0.86596764	0.21551455	-1.2981189	0.94279527	-0.10009029	-1.2958585	0.94764051	0.14179452	-1.4562119	1.0104657	0.024865378	-1.255857	1.4009686	-0.13116543	-1.303742	1.4049977	0.19351507	-1.3400454	1.4588047	0.027382924	-1.3469539	1.0377697	-0.22180068	NaN	NaN	NaN	-1.0993399	0.92803797	-0.18034296	-1.3868588	0.83080152	0.2911943
4	0.012	-1.5427048	0.036273964	-0.015531356	-0.9042982	0.10020774	0.11219722	-1.6854227	0.085797458	-0.049407527	-1.0547151	0.069641112	0.12976927	-1.6606595	0.10214836	0.044032885	-1.0451772	0.11262398	0.041195648	NaN	NaN	NaN	-1.0999061	0.029208809	0.069488082	-1.5281654	0.47167153	-0.11118588	-1.1774943	0.51222444	0.17927413	-1.5287336	0.47351088	0.014811324	-1.16261	0.49759519	0.053414326	-1.3984572	0.87206654	-0.15353917	-1.3758519	0.86434186	0.21564811	-1.2921249	0.94154176	-0.10003413	-1.2895987	0.94625869	0.14189867	-1.4503423	1.0088898	0.024393986	-1.2500175	1.3997372	-0.13079829	-1.2982207	1.4036535	0.19383799	-1.3344044	1.4575251	0.027495903	-1.3397946	1.0361336	-0.22161281	NaN	NaN	NaN	-1.0914256	0.92822515	-0.17964866	-1.3813897	0.82931581	0.29164769
5	0.016	-1.5426069	0.036273159	-0.015625844	-0.88984917	0.10442113	0.11265805	-1.6849936	0.086763427	-0.049608175	-1.0397031	0.070493999	0.13023588	-1.6600929	0.10293074	0.043810534	-1.0309679	0.11361234	0.041601242	NaN	NaN	NaN	-1.0838952	0.028889327	0.070246014	-1.5244733	0.47152071	-0.11130857	-1.1713302	0.51067183	0.17933664	-1.5249605	0.47337311	0.014764504	-1.156114	0.49628452	0.053285232	-1.3926916	0.87098123	-0.15334638	-1.3694497	0.86270489	0.2157891	-1.2860867	0.94029293	-0.099989013	-1.283231	0.94489164	0.14199559	-1.4440717	1.0073335	0.024603278	-1.2441387	1.3984946	-0.13043343	-1.2926503	1.4023037	0.19418457	-1.3286126	1.4562432	0.027891083	-1.3326323	1.0345056	-0.22134892	NaN	NaN	NaN	-1.0833871	0.92831817	-0.17891289	-1.3758343	0.82781477	0.29209695
6	0.02	-1.5425013	0.036272557	-0.015719431	-0.87599055	0.10854287	0.11305052	-1.6844836	0.08777834	-0.04986424	-1.0253168	0.071369	0.13062173	-1.6594535	0.10373614	0.043552413	-1.0172809	0.11461873	0.041968334	NaN	NaN	NaN	-1.0684275	0.028647695	0.071169996	-1.5204737	0.47129474	-0.11139502	-1.1649008	0.5091735	0.17945371	-1.5209707	0.47315792	0.014714025	-1.1496574	0.49498136	0.053144982	-1.3868832	0.86989071	-0.15313252	-1.3628706	0.86106806	0.21594364	-1.2800091	0.93904669	-0.099975835	-1.2767731	0.94355019	0.14209178	-1.4377082	1.005797	0.025000873	-1.2382255	1.3972497	-0.1300697	-1.2869932	1.4009567	0.19453042	-1.3226305	1.4549905	0.02869881	-1.3254776	1.032892	-0.22102132	NaN	NaN	NaN	-1.0753854	0.92832479	-0.17818292	-1.3701939	0.82631212	0.29253793
7	0.024	-1.5423921	0.036266159	-0.015810971	-0.8627406	0.11247082	0.11338139	-1.6838868	0.08883877	-0.050190503	-1.0114417	0.072294871	0.13094921	-1.658708	0.10458639	0.043250152	-1.0041321	0.11562118	0.042267501	NaN	NaN	NaN	-1.0535431	0.028464737	0.072166617	-1.5162409	0.47099929	-0.11145118	-1.158208	0.50777922	0.17959869	-1.5168175	0.47285289	0.014646995	-1.1432185	0.49370712	0.053009809	-1.3810312	0.86879806	-0.15287123	-1.3561582	0.85943757	0.21611425	-1.2738936	0.93781291	-0.099993717	-1.2702672	0.9422458	0.14219977	-1.4314747	1.0042814	0.025508431	-1.2322821	1.3960082	-0.12970672	-1.2812396	1.3996157	0.19486701	-1.3165092	1.4537904	0.029823244	-1.3183392	1.0313081	-0.22067215	NaN	NaN	NaN	-1.0676107	0.92825465	-0.1775147	-1.3644638	0.82481607	0.29296404
8	0.028	-1.542277	0.036253535	-0.015900696	-0.85009101	0.11611198	0.11366486	-1.6832232	0.089944845	-0.05057404	-0.99775125	0.073403683	0.1313176	-1.6579029	0.10548211	0.042907585	-0.99155261	0.11658093	0.042484529	NaN	NaN	NaN	-1.0393197	0.028352909	0.073045287	-1.5118526	0.4706415	-0.11150115	-1.1512572	0.50651969	0.17975054	-1.5124802	0.47247343	0.014567539	-1.136755	0.49248727	0.052891276	-1.3751248	0.86770314	-0.15255913	-1.3493312	0.85782098	0.21629869	-1.2677266	0.93659835	-0.10001872	-1.263741	0.94097859	0.142315	-1.4255752	1.0028072	0.026445925	-1.2263089	1.3947717	-0.12933822	-1.2754034	1.3982808	0.19520114	-1.3103836	1.452612	0.030907092	-1.3112234	1.0297696	-0.22033288	-1.4513699	1.076133	0.25818566	-1.0600492	0.92811562	-0.17689922	-1.3586455	0.8233316	0.2933714
9	0.032	-1.5421525	0.036238701	-0.015991424	-0.83804426	0.11939048	0.11390137	-1.6825283	0.091104624	-0.050981566	-0.98396919	0.074804823	0.13179779	-1.6570803	0.10641136	0.04252809	-0.97957662	0.11745402	0.042614375	NaN	NaN	NaN	-1.0258234	0.028308064	0.073657419	-1.5073039	0.47022309	-0.11157012	-1.1439902	0.50540867	0.17992898	-1.5079522	0.47205411	0.014499476	-1.130219	0.49134367	0.052795249	-1.3691508	0.86660173	-0.15220515	-1.3423849	0.85622897	0.21649521	-1.2614907	0.93539453	-0.10003641	-1.2572029	0.93973789	0.14242263	-1.420107	1.0014031	0.028240329	-1.2203038	1.3935428	-0.12895169	-1.2695051	1.3969541	0.19554635	-1.3043489	1.4514055	0.031670311	-1.3041315	1.0282773	-0.21998673	-1.4449072	1.0750143	0.25833322	-1.0525625	0.92791602	-0.17628921	-1.3527537	0.82186042	0.29376077
10	0.036	-1.5420159	0.036225676	-0.016086015	-0.82662254	0.12226426	0.11406206	-1.681812	0.09231763	-0.051399735	-0.97030518	0.076355596	0.1323071	-1.6562209	0.10737323	0.042104626	-0.96820795	0.11821107	0.042656864	NaN	NaN	NaN	-1.0130793	0.02828525	0.07398381	-1.5025711	0.46975139	-0.11166654	-1.1362635	0.50445654	0.18019137	-1.5032453	0.47162728	0.01445993	-1.1235782	0.4902947	0.052719606	-1.3630978	0.86549039	-0.15182051	-1.3353175	0.85467498	0.21670423	-1.2551824	0.93419394	-0.10005201	-1.250647	0.9385223	0.14251255	-1.4148304	1.0000737	0.030858096	-1.2142632	1.3923262	-0.12854368	-1.2635593	1.3956401	0.19590852	-1.2983918	1.450162	0.03213787	-1.2970623	1.0268206	-0.21959341	-1.4384277	1.0739108	0.25844629	-1.0450771	0.92766086	-0.17565841	-1.3468068	0.82040322	0.29413715
11	0.04	-1.5418667	0.036215971	-0.016182134	-0.81585718	0.12472466	0.11409923	-1.6810256	0.093581317	-0.051855863	-0.9574628	0.07764987	0.13263434	-1.6552954	0.10838149	0.041630343	-0.95739179	0.11884206	0.042612417	NaN	NaN	NaN	-1.0011028	0.028223984	0.074059879	-1.4976806	0.4692408	-0.11177357	-1.1279953	0.50365975	0.18057943	-1.4983481	0.47119284	0.014448985	-1.1168212	0.48934907	0.052659317	-1.3569558	0.86436974	-0.15141247	-1.328135	0.85316846	0.21693076	-1.248812	0.93300317	-0.10007074	-1.2440513	0.93733684	0.14258923	-1.4092644	0.99878409	0.033577938	-1.2081821	1.3911258	-0.128123	-1.2575675	1.3943454	0.19628082	-1.2924501	1.4489094	0.032486346	-1.2900199	1.0253954	-0.21914379	-1.4319789	1.072761	0.25853679	-1.0376121	0.92735059	-0.17500806	-1.3408054	0.81896153	0.29450654
